<svg xmlns="http://www.w3.org/2000/svg" xmlns:xlink="http://www.w3.org/1999/xlink" width="1000" zoomAndPan="magnify" viewBox="0 0 750 187.499995" height="250" preserveAspectRatio="xMidYMid meet" version="1.0"><defs><g/></defs><g fill="#a9bedf" fill-opacity="0.4"><g transform="translate(32.188504, 151.524608)"><g><path d="M 23.140625 -40.21875 L 7.765625 0 L 23.296875 0 L 33.234375 -27.953125 L 82.46875 -27.953125 L 92.40625 0 L 107.78125 0 L 92.40625 -40.21875 Z M 49.390625 -109.03125 L 27.953125 -52.8125 L 42.40625 -52.8125 L 57.78125 -94.578125 L 73.15625 -52.8125 L 87.59375 -52.8125 L 66.15625 -109.03125 Z M 49.390625 -109.03125 "/></g></g></g><g fill="#a9bedf" fill-opacity="0.4"><g transform="translate(142.29894, 151.524608)"><g><path d="M 7.765625 -108.875 L 7.765625 0.3125 L 22.515625 0.3125 L 22.515625 -108.875 Z M 37.4375 -12.109375 L 37.4375 0.3125 L 75.640625 0.3125 L 75.640625 -12.109375 Z M 37.4375 -12.109375 "/></g></g></g><g fill="#a9bedf" fill-opacity="0.4"><g transform="translate(220.261345, 151.524608)"><g><path d="M 7.765625 -109.1875 L 7.765625 -43.953125 L 41.15625 -43.953125 C 53.421875 -43.953125 62.59375 -46.75 68.796875 -52.1875 C 75.171875 -57.78125 78.28125 -65.859375 78.28125 -76.5625 C 78.28125 -87.28125 75.171875 -95.359375 68.796875 -100.796875 C 62.59375 -106.390625 53.421875 -109.1875 41.15625 -109.1875 Z M 22.515625 -96.140625 L 41.15625 -96.140625 C 47.984375 -96.140625 53.265625 -94.578125 57 -90.859375 C 60.734375 -87.28125 62.59375 -82.46875 62.59375 -76.5625 C 62.59375 -70.671875 60.734375 -66.15625 57 -62.4375 C 53.265625 -58.859375 47.984375 -57 41.15625 -57 L 22.515625 -57 Z M 7.765625 -29.046875 L 7.765625 0 L 22.515625 0 L 22.515625 -29.046875 Z M 7.765625 -29.046875 "/></g></g></g><g fill="#a9bedf" fill-opacity="0.4"><g transform="translate(300.708606, 151.524608)"><g><path d="M 52.1875 -61.5 L 52.1875 -46.90625 C 55.90625 -45.65625 59.171875 -43.640625 61.8125 -41 C 65.234375 -36.8125 66.46875 -32.609375 65.546875 -28.265625 C 64.765625 -23.921875 62.4375 -20.65625 58.390625 -18.328125 C 54.984375 -16.78125 51.25 -15.6875 46.59375 -15.0625 C 42.09375 -14.59375 38.359375 -14.4375 35.09375 -14.59375 C 32 -14.90625 27.484375 -15.0625 21.59375 -15.6875 C 15.84375 -16.3125 11.65625 -16.78125 9.15625 -16.921875 L 8.234375 -2.328125 C 11.03125 -2.328125 15.84375 -2.015625 22.984375 -1.390625 C 30.28125 -0.78125 36.03125 -0.625 40.21875 -0.3125 C 44.578125 -0.15625 49.390625 -0.46875 54.984375 -1.390625 C 60.734375 -2.328125 65.546875 -4.03125 69.265625 -6.375 C 76.71875 -11.1875 80.765625 -18.640625 81.390625 -28.578125 C 82 -37.28125 79.828125 -44.109375 74.859375 -49.390625 C 70.203125 -54.671875 62.59375 -58.703125 52.1875 -61.5 Z M 19.421875 -102.5 C 12.265625 -97.6875 8.390625 -90.703125 7.765625 -81.390625 C 7.453125 -73.46875 9.46875 -67.09375 13.984375 -62.125 C 18.328125 -57.78125 26.25 -54.046875 37.4375 -50.9375 L 37.4375 -65.390625 C 34.640625 -65.703125 32 -66.78125 29.8125 -68.640625 C 27.640625 -70.671875 26.25 -72.84375 25.3125 -75.171875 C 24.390625 -77.65625 24.078125 -79.984375 24.546875 -82.46875 C 25.15625 -85.109375 26.40625 -87.28125 28.265625 -88.84375 C 30.4375 -90.390625 32.921875 -91.640625 36.1875 -92.40625 C 39.609375 -93.34375 43.328125 -93.8125 47.53125 -93.8125 C 51.875 -93.96875 55.453125 -93.96875 58.390625 -93.8125 C 61.5 -93.8125 65.078125 -93.5 69.421875 -93.03125 C 73.78125 -92.71875 76.40625 -92.40625 77.03125 -92.25 L 77.96875 -106.859375 L 66.625 -107.625 C 61.5 -108.09375 57.15625 -108.40625 53.578125 -108.5625 C 50.171875 -108.875 46.125 -109.03125 41.625 -108.71875 C 37.28125 -108.5625 33.078125 -108.09375 29.359375 -107.015625 C 25.625 -106.078125 22.359375 -104.53125 19.421875 -102.5 Z M 19.421875 -102.5 "/></g></g></g><g fill="#a9bedf" fill-opacity="0.4"><g transform="translate(384.417262, 151.524608)"><g><path d="M 39.296875 -109.03125 L 8.546875 -109.03125 L 8.546875 -96.921875 L 39.609375 -96.921875 C 46.125 -96.921875 51.40625 -95.203125 55.453125 -91.484375 C 59.640625 -88.0625 61.65625 -83.40625 61.65625 -77.65625 C 61.65625 -74.234375 60.734375 -70.671875 58.703125 -66.9375 C 57 -63.375 53.734375 -59.015625 48.921875 -53.734375 C 46.4375 -50.9375 40.375 -44.890625 30.59375 -35.25 L 22.671875 -27.328125 L 40.53125 -27.328125 C 45.65625 -32.453125 49.859375 -36.65625 53.109375 -40.078125 L 64.765625 -52.03125 C 69.265625 -57.46875 72.375 -62.125 73.921875 -66.015625 C 75.640625 -70.046875 76.40625 -74.234375 76.40625 -78.59375 C 76.40625 -87.90625 73.15625 -95.046875 66.3125 -100.640625 C 59.640625 -106.234375 50.625 -109.03125 39.296875 -109.03125 Z M 7.921875 -12.421875 L 7.765625 -12.265625 L 7.765625 -0.15625 L 77.03125 -0.15625 L 77.03125 -12.265625 L 25.46875 -12.265625 L 25.625 -12.421875 Z M 7.921875 -12.421875 "/></g></g></g><g fill="#a9bedf" fill-opacity="0.4"><g transform="translate(463.777407, 151.524608)"><g><path d="M 7.765625 -109.1875 L 7.765625 -96.921875 C 10.5625 -97.078125 16 -97.078125 24.546875 -97.078125 L 44.421875 -97.078125 C 51.71875 -97.078125 57.15625 -95.828125 60.578125 -93.03125 C 64.140625 -90.234375 65.859375 -86.203125 65.859375 -80.609375 C 65.859375 -75.015625 64.140625 -70.984375 60.578125 -68.1875 C 57.15625 -65.546875 51.71875 -64.140625 44.421875 -64.140625 L 17.078125 -64.140625 L 16.921875 -50.171875 C 21.90625 -50.328125 27.328125 -50.328125 33.234375 -50.171875 C 39.296875 -50.171875 43.953125 -50.015625 47.375 -50.015625 C 54.359375 -50.171875 59.796875 -50.9375 64.140625 -52.34375 C 68.5 -53.890625 72.0625 -56.375 74.546875 -59.953125 C 77.03125 -63.375 78.59375 -66.46875 79.359375 -69.734375 C 80.296875 -73.15625 80.609375 -77.1875 80.609375 -82.15625 C 80.609375 -90.859375 77.8125 -97.53125 71.59375 -102.203125 C 65.546875 -106.859375 56.84375 -109.1875 45.5 -109.1875 Z M 82.9375 -45.34375 C 78.90625 -42.5625 74.078125 -40.21875 68.796875 -38.515625 C 69.421875 -36.5 69.578125 -34.328125 69.578125 -32.15625 C 69.578125 -25.46875 67.71875 -20.5 63.828125 -17.078125 C 60.109375 -13.984375 54.359375 -12.265625 46.28125 -12.265625 C 41.46875 -12.265625 34.796875 -12.109375 25.9375 -12.109375 C 17.234375 -12.265625 11.1875 -12.265625 7.765625 -12.265625 L 7.765625 0 L 47.0625 0 C 59.328125 0 68.796875 -2.640625 75.328125 -7.921875 C 82 -13.359375 85.265625 -20.96875 85.265625 -30.59375 C 85.109375 -36.5 84.328125 -41.46875 82.9375 -45.34375 Z M 82.9375 -45.34375 "/></g></g></g><g fill="#a9bedf" fill-opacity="0.4"><g transform="translate(551.213397, 151.524608)"><g><path d="M 7.765625 -109.1875 L 7.765625 -96.921875 C 10.5625 -97.078125 16 -97.078125 24.546875 -97.078125 L 44.421875 -97.078125 C 51.71875 -97.078125 57.15625 -95.828125 60.578125 -93.03125 C 64.140625 -90.234375 65.859375 -86.203125 65.859375 -80.609375 C 65.859375 -75.015625 64.140625 -70.984375 60.578125 -68.1875 C 57.15625 -65.546875 51.71875 -64.140625 44.421875 -64.140625 L 17.078125 -64.140625 L 16.921875 -50.171875 C 21.90625 -50.328125 27.328125 -50.328125 33.234375 -50.171875 C 39.296875 -50.171875 43.953125 -50.015625 47.375 -50.015625 C 54.359375 -50.171875 59.796875 -50.9375 64.140625 -52.34375 C 68.5 -53.890625 72.0625 -56.375 74.546875 -59.953125 C 77.03125 -63.375 78.59375 -66.46875 79.359375 -69.734375 C 80.296875 -73.15625 80.609375 -77.1875 80.609375 -82.15625 C 80.609375 -90.859375 77.8125 -97.53125 71.59375 -102.203125 C 65.546875 -106.859375 56.84375 -109.1875 45.5 -109.1875 Z M 82.9375 -45.34375 C 78.90625 -42.5625 74.078125 -40.21875 68.796875 -38.515625 C 69.421875 -36.5 69.578125 -34.328125 69.578125 -32.15625 C 69.578125 -25.46875 67.71875 -20.5 63.828125 -17.078125 C 60.109375 -13.984375 54.359375 -12.265625 46.28125 -12.265625 C 41.46875 -12.265625 34.796875 -12.109375 25.9375 -12.109375 C 17.234375 -12.265625 11.1875 -12.265625 7.765625 -12.265625 L 7.765625 0 L 47.0625 0 C 59.328125 0 68.796875 -2.640625 75.328125 -7.921875 C 82 -13.359375 85.265625 -20.96875 85.265625 -30.59375 C 85.109375 -36.5 84.328125 -41.46875 82.9375 -45.34375 Z M 82.9375 -45.34375 "/></g></g></g><g fill="#a9bedf" fill-opacity="0.4"><g transform="translate(638.649388, 151.524608)"><g><path d="M 7.765625 -109.1875 L 7.765625 -96.921875 C 10.5625 -97.078125 16 -97.078125 24.546875 -97.078125 L 44.421875 -97.078125 C 51.71875 -97.078125 57.15625 -95.828125 60.578125 -93.03125 C 64.140625 -90.234375 65.859375 -86.203125 65.859375 -80.609375 C 65.859375 -75.015625 64.140625 -70.984375 60.578125 -68.1875 C 57.15625 -65.546875 51.71875 -64.140625 44.421875 -64.140625 L 17.078125 -64.140625 L 16.921875 -50.171875 C 21.90625 -50.328125 27.328125 -50.328125 33.234375 -50.171875 C 39.296875 -50.171875 43.953125 -50.015625 47.375 -50.015625 C 54.359375 -50.171875 59.796875 -50.9375 64.140625 -52.34375 C 68.5 -53.890625 72.0625 -56.375 74.546875 -59.953125 C 77.03125 -63.375 78.59375 -66.46875 79.359375 -69.734375 C 80.296875 -73.15625 80.609375 -77.1875 80.609375 -82.15625 C 80.609375 -90.859375 77.8125 -97.53125 71.59375 -102.203125 C 65.546875 -106.859375 56.84375 -109.1875 45.5 -109.1875 Z M 82.9375 -45.34375 C 78.90625 -42.5625 74.078125 -40.21875 68.796875 -38.515625 C 69.421875 -36.5 69.578125 -34.328125 69.578125 -32.15625 C 69.578125 -25.46875 67.71875 -20.5 63.828125 -17.078125 C 60.109375 -13.984375 54.359375 -12.265625 46.28125 -12.265625 C 41.46875 -12.265625 34.796875 -12.109375 25.9375 -12.109375 C 17.234375 -12.265625 11.1875 -12.265625 7.765625 -12.265625 L 7.765625 0 L 47.0625 0 C 59.328125 0 68.796875 -2.640625 75.328125 -7.921875 C 82 -13.359375 85.265625 -20.96875 85.265625 -30.59375 C 85.109375 -36.5 84.328125 -41.46875 82.9375 -45.34375 Z M 82.9375 -45.34375 "/></g></g></g><g fill="#a9bedf" fill-opacity="1"><g transform="translate(25.32435, 144.660456)"><g><path d="M 23.140625 -40.21875 L 7.765625 0 L 23.296875 0 L 33.234375 -27.953125 L 82.46875 -27.953125 L 92.40625 0 L 107.78125 0 L 92.40625 -40.21875 Z M 49.390625 -109.03125 L 27.953125 -52.8125 L 42.40625 -52.8125 L 57.78125 -94.578125 L 73.15625 -52.8125 L 87.59375 -52.8125 L 66.15625 -109.03125 Z M 49.390625 -109.03125 "/></g></g></g><g fill="#a9bedf" fill-opacity="1"><g transform="translate(135.434787, 144.660456)"><g><path d="M 7.765625 -108.875 L 7.765625 0.3125 L 22.515625 0.3125 L 22.515625 -108.875 Z M 37.4375 -12.109375 L 37.4375 0.3125 L 75.640625 0.3125 L 75.640625 -12.109375 Z M 37.4375 -12.109375 "/></g></g></g><g fill="#a9bedf" fill-opacity="1"><g transform="translate(213.397192, 144.660456)"><g><path d="M 7.765625 -109.1875 L 7.765625 -43.953125 L 41.15625 -43.953125 C 53.421875 -43.953125 62.59375 -46.75 68.796875 -52.1875 C 75.171875 -57.78125 78.28125 -65.859375 78.28125 -76.5625 C 78.28125 -87.28125 75.171875 -95.359375 68.796875 -100.796875 C 62.59375 -106.390625 53.421875 -109.1875 41.15625 -109.1875 Z M 22.515625 -96.140625 L 41.15625 -96.140625 C 47.984375 -96.140625 53.265625 -94.578125 57 -90.859375 C 60.734375 -87.28125 62.59375 -82.46875 62.59375 -76.5625 C 62.59375 -70.671875 60.734375 -66.15625 57 -62.4375 C 53.265625 -58.859375 47.984375 -57 41.15625 -57 L 22.515625 -57 Z M 7.765625 -29.046875 L 7.765625 0 L 22.515625 0 L 22.515625 -29.046875 Z M 7.765625 -29.046875 "/></g></g></g><g fill="#a9bedf" fill-opacity="1"><g transform="translate(293.844453, 144.660456)"><g><path d="M 52.1875 -61.5 L 52.1875 -46.90625 C 55.90625 -45.65625 59.171875 -43.640625 61.8125 -41 C 65.234375 -36.8125 66.46875 -32.609375 65.546875 -28.265625 C 64.765625 -23.921875 62.4375 -20.65625 58.390625 -18.328125 C 54.984375 -16.78125 51.25 -15.6875 46.59375 -15.0625 C 42.09375 -14.59375 38.359375 -14.4375 35.09375 -14.59375 C 32 -14.90625 27.484375 -15.0625 21.59375 -15.6875 C 15.84375 -16.3125 11.65625 -16.78125 9.15625 -16.921875 L 8.234375 -2.328125 C 11.03125 -2.328125 15.84375 -2.015625 22.984375 -1.390625 C 30.28125 -0.78125 36.03125 -0.625 40.21875 -0.3125 C 44.578125 -0.15625 49.390625 -0.46875 54.984375 -1.390625 C 60.734375 -2.328125 65.546875 -4.03125 69.265625 -6.375 C 76.71875 -11.1875 80.765625 -18.640625 81.390625 -28.578125 C 82 -37.28125 79.828125 -44.109375 74.859375 -49.390625 C 70.203125 -54.671875 62.59375 -58.703125 52.1875 -61.5 Z M 19.421875 -102.5 C 12.265625 -97.6875 8.390625 -90.703125 7.765625 -81.390625 C 7.453125 -73.46875 9.46875 -67.09375 13.984375 -62.125 C 18.328125 -57.78125 26.25 -54.046875 37.4375 -50.9375 L 37.4375 -65.390625 C 34.640625 -65.703125 32 -66.78125 29.8125 -68.640625 C 27.640625 -70.671875 26.25 -72.84375 25.3125 -75.171875 C 24.390625 -77.65625 24.078125 -79.984375 24.546875 -82.46875 C 25.15625 -85.109375 26.40625 -87.28125 28.265625 -88.84375 C 30.4375 -90.390625 32.921875 -91.640625 36.1875 -92.40625 C 39.609375 -93.34375 43.328125 -93.8125 47.53125 -93.8125 C 51.875 -93.96875 55.453125 -93.96875 58.390625 -93.8125 C 61.5 -93.8125 65.078125 -93.5 69.421875 -93.03125 C 73.78125 -92.71875 76.40625 -92.40625 77.03125 -92.25 L 77.96875 -106.859375 L 66.625 -107.625 C 61.5 -108.09375 57.15625 -108.40625 53.578125 -108.5625 C 50.171875 -108.875 46.125 -109.03125 41.625 -108.71875 C 37.28125 -108.5625 33.078125 -108.09375 29.359375 -107.015625 C 25.625 -106.078125 22.359375 -104.53125 19.421875 -102.5 Z M 19.421875 -102.5 "/></g></g></g><g fill="#a9bedf" fill-opacity="1"><g transform="translate(377.553109, 144.660456)"><g><path d="M 39.296875 -109.03125 L 8.546875 -109.03125 L 8.546875 -96.921875 L 39.609375 -96.921875 C 46.125 -96.921875 51.40625 -95.203125 55.453125 -91.484375 C 59.640625 -88.0625 61.65625 -83.40625 61.65625 -77.65625 C 61.65625 -74.234375 60.734375 -70.671875 58.703125 -66.9375 C 57 -63.375 53.734375 -59.015625 48.921875 -53.734375 C 46.4375 -50.9375 40.375 -44.890625 30.59375 -35.25 L 22.671875 -27.328125 L 40.53125 -27.328125 C 45.65625 -32.453125 49.859375 -36.65625 53.109375 -40.078125 L 64.765625 -52.03125 C 69.265625 -57.46875 72.375 -62.125 73.921875 -66.015625 C 75.640625 -70.046875 76.40625 -74.234375 76.40625 -78.59375 C 76.40625 -87.90625 73.15625 -95.046875 66.3125 -100.640625 C 59.640625 -106.234375 50.625 -109.03125 39.296875 -109.03125 Z M 7.921875 -12.421875 L 7.765625 -12.265625 L 7.765625 -0.15625 L 77.03125 -0.15625 L 77.03125 -12.265625 L 25.46875 -12.265625 L 25.625 -12.421875 Z M 7.921875 -12.421875 "/></g></g></g><g fill="#a9bedf" fill-opacity="1"><g transform="translate(456.913254, 144.660456)"><g><path d="M 7.765625 -109.1875 L 7.765625 -96.921875 C 10.5625 -97.078125 16 -97.078125 24.546875 -97.078125 L 44.421875 -97.078125 C 51.71875 -97.078125 57.15625 -95.828125 60.578125 -93.03125 C 64.140625 -90.234375 65.859375 -86.203125 65.859375 -80.609375 C 65.859375 -75.015625 64.140625 -70.984375 60.578125 -68.1875 C 57.15625 -65.546875 51.71875 -64.140625 44.421875 -64.140625 L 17.078125 -64.140625 L 16.921875 -50.171875 C 21.90625 -50.328125 27.328125 -50.328125 33.234375 -50.171875 C 39.296875 -50.171875 43.953125 -50.015625 47.375 -50.015625 C 54.359375 -50.171875 59.796875 -50.9375 64.140625 -52.34375 C 68.5 -53.890625 72.0625 -56.375 74.546875 -59.953125 C 77.03125 -63.375 78.59375 -66.46875 79.359375 -69.734375 C 80.296875 -73.15625 80.609375 -77.1875 80.609375 -82.15625 C 80.609375 -90.859375 77.8125 -97.53125 71.59375 -102.203125 C 65.546875 -106.859375 56.84375 -109.1875 45.5 -109.1875 Z M 82.9375 -45.34375 C 78.90625 -42.5625 74.078125 -40.21875 68.796875 -38.515625 C 69.421875 -36.5 69.578125 -34.328125 69.578125 -32.15625 C 69.578125 -25.46875 67.71875 -20.5 63.828125 -17.078125 C 60.109375 -13.984375 54.359375 -12.265625 46.28125 -12.265625 C 41.46875 -12.265625 34.796875 -12.109375 25.9375 -12.109375 C 17.234375 -12.265625 11.1875 -12.265625 7.765625 -12.265625 L 7.765625 0 L 47.0625 0 C 59.328125 0 68.796875 -2.640625 75.328125 -7.921875 C 82 -13.359375 85.265625 -20.96875 85.265625 -30.59375 C 85.109375 -36.5 84.328125 -41.46875 82.9375 -45.34375 Z M 82.9375 -45.34375 "/></g></g></g><g fill="#a9bedf" fill-opacity="1"><g transform="translate(544.349244, 144.660456)"><g><path d="M 7.765625 -109.1875 L 7.765625 -96.921875 C 10.5625 -97.078125 16 -97.078125 24.546875 -97.078125 L 44.421875 -97.078125 C 51.71875 -97.078125 57.15625 -95.828125 60.578125 -93.03125 C 64.140625 -90.234375 65.859375 -86.203125 65.859375 -80.609375 C 65.859375 -75.015625 64.140625 -70.984375 60.578125 -68.1875 C 57.15625 -65.546875 51.71875 -64.140625 44.421875 -64.140625 L 17.078125 -64.140625 L 16.921875 -50.171875 C 21.90625 -50.328125 27.328125 -50.328125 33.234375 -50.171875 C 39.296875 -50.171875 43.953125 -50.015625 47.375 -50.015625 C 54.359375 -50.171875 59.796875 -50.9375 64.140625 -52.34375 C 68.5 -53.890625 72.0625 -56.375 74.546875 -59.953125 C 77.03125 -63.375 78.59375 -66.46875 79.359375 -69.734375 C 80.296875 -73.15625 80.609375 -77.1875 80.609375 -82.15625 C 80.609375 -90.859375 77.8125 -97.53125 71.59375 -102.203125 C 65.546875 -106.859375 56.84375 -109.1875 45.5 -109.1875 Z M 82.9375 -45.34375 C 78.90625 -42.5625 74.078125 -40.21875 68.796875 -38.515625 C 69.421875 -36.5 69.578125 -34.328125 69.578125 -32.15625 C 69.578125 -25.46875 67.71875 -20.5 63.828125 -17.078125 C 60.109375 -13.984375 54.359375 -12.265625 46.28125 -12.265625 C 41.46875 -12.265625 34.796875 -12.109375 25.9375 -12.109375 C 17.234375 -12.265625 11.1875 -12.265625 7.765625 -12.265625 L 7.765625 0 L 47.0625 0 C 59.328125 0 68.796875 -2.640625 75.328125 -7.921875 C 82 -13.359375 85.265625 -20.96875 85.265625 -30.59375 C 85.109375 -36.5 84.328125 -41.46875 82.9375 -45.34375 Z M 82.9375 -45.34375 "/></g></g></g><g fill="#a9bedf" fill-opacity="1"><g transform="translate(631.785234, 144.660456)"><g><path d="M 7.765625 -109.1875 L 7.765625 -96.921875 C 10.5625 -97.078125 16 -97.078125 24.546875 -97.078125 L 44.421875 -97.078125 C 51.71875 -97.078125 57.15625 -95.828125 60.578125 -93.03125 C 64.140625 -90.234375 65.859375 -86.203125 65.859375 -80.609375 C 65.859375 -75.015625 64.140625 -70.984375 60.578125 -68.1875 C 57.15625 -65.546875 51.71875 -64.140625 44.421875 -64.140625 L 17.078125 -64.140625 L 16.921875 -50.171875 C 21.90625 -50.328125 27.328125 -50.328125 33.234375 -50.171875 C 39.296875 -50.171875 43.953125 -50.015625 47.375 -50.015625 C 54.359375 -50.171875 59.796875 -50.9375 64.140625 -52.34375 C 68.5 -53.890625 72.0625 -56.375 74.546875 -59.953125 C 77.03125 -63.375 78.59375 -66.46875 79.359375 -69.734375 C 80.296875 -73.15625 80.609375 -77.1875 80.609375 -82.15625 C 80.609375 -90.859375 77.8125 -97.53125 71.59375 -102.203125 C 65.546875 -106.859375 56.84375 -109.1875 45.5 -109.1875 Z M 82.9375 -45.34375 C 78.90625 -42.5625 74.078125 -40.21875 68.796875 -38.515625 C 69.421875 -36.5 69.578125 -34.328125 69.578125 -32.15625 C 69.578125 -25.46875 67.71875 -20.5 63.828125 -17.078125 C 60.109375 -13.984375 54.359375 -12.265625 46.28125 -12.265625 C 41.46875 -12.265625 34.796875 -12.109375 25.9375 -12.109375 C 17.234375 -12.265625 11.1875 -12.265625 7.765625 -12.265625 L 7.765625 0 L 47.0625 0 C 59.328125 0 68.796875 -2.640625 75.328125 -7.921875 C 82 -13.359375 85.265625 -20.96875 85.265625 -30.59375 C 85.109375 -36.5 84.328125 -41.46875 82.9375 -45.34375 Z M 82.9375 -45.34375 "/></g></g></g></svg>