<svg xmlns="http://www.w3.org/2000/svg" xmlns:xlink="http://www.w3.org/1999/xlink" width="500" zoomAndPan="magnify" viewBox="0 0 375 374.999991" height="500" preserveAspectRatio="xMidYMid meet" version="1.0"><defs><g/></defs><rect x="-37.5" width="450" fill="#ffffff" y="-37.499999" height="449.999989" fill-opacity="1"/><rect x="-37.5" width="450" fill="#ffffff" y="-37.499999" height="449.999989" fill-opacity="1"/><g fill="#a9bedf" fill-opacity="0.4"><g transform="translate(47.142962, 138.580461)"><g><path d="M 23.21875 -40.375 L 7.796875 0 L 23.375 0 L 33.359375 -28.0625 L 82.765625 -28.0625 L 92.75 0 L 108.171875 0 L 92.75 -40.375 Z M 49.5625 -109.421875 L 28.0625 -53 L 42.546875 -53 L 57.984375 -94.921875 L 73.421875 -53 L 87.90625 -53 L 66.40625 -109.421875 Z M 49.5625 -109.421875 "/></g></g></g><g fill="#a9bedf" fill-opacity="1"><g transform="translate(40.253908, 131.691407)"><g><path d="M 23.21875 -40.375 L 7.796875 0 L 23.375 0 L 33.359375 -28.0625 L 82.765625 -28.0625 L 92.75 0 L 108.171875 0 L 92.75 -40.375 Z M 49.5625 -109.421875 L 28.0625 -53 L 42.546875 -53 L 57.984375 -94.921875 L 73.421875 -53 L 87.90625 -53 L 66.40625 -109.421875 Z M 49.5625 -109.421875 "/></g></g></g><g fill="#a9bedf" fill-opacity="0.4"><g transform="translate(163.111708, 138.580461)"><g/></g></g><g fill="#a9bedf" fill-opacity="0.4"><g transform="translate(194.285916, 138.580461)"><g/></g></g><g fill="#a9bedf" fill-opacity="0.4"><g transform="translate(225.460124, 138.580461)"><g/></g></g><g fill="#a9bedf" fill-opacity="1"><g transform="translate(156.222654, 131.691407)"><g/></g></g><g fill="#a9bedf" fill-opacity="1"><g transform="translate(187.396862, 131.691407)"><g/></g></g><g fill="#a9bedf" fill-opacity="1"><g transform="translate(218.57107, 131.691407)"><g/></g></g><g fill="#a9bedf" fill-opacity="0.4"><g transform="translate(256.639042, 138.580461)"><g><path d="M 7.796875 -109.265625 L 7.796875 0.3125 L 22.609375 0.3125 L 22.609375 -109.265625 Z M 37.5625 -12.15625 L 37.5625 0.3125 L 75.90625 0.3125 L 75.90625 -12.15625 Z M 37.5625 -12.15625 "/></g></g></g><g fill="#a9bedf" fill-opacity="1"><g transform="translate(249.749988, 131.691407)"><g><path d="M 7.796875 -109.265625 L 7.796875 0.3125 L 22.609375 0.3125 L 22.609375 -109.265625 Z M 37.5625 -12.15625 L 37.5625 0.3125 L 75.90625 0.3125 L 75.90625 -12.15625 Z M 37.5625 -12.15625 "/></g></g></g><g fill="#a9bedf" fill-opacity="0.4"><g transform="translate(59.142961, 356.080447)"><g><path d="M 7.796875 -109.578125 L 7.796875 -44.109375 L 41.3125 -44.109375 C 53.625 -44.109375 62.8125 -46.921875 69.046875 -52.375 C 75.4375 -57.984375 78.5625 -66.09375 78.5625 -76.84375 C 78.5625 -87.609375 75.4375 -95.703125 69.046875 -101.15625 C 62.8125 -106.78125 53.625 -109.578125 41.3125 -109.578125 Z M 22.609375 -96.484375 L 41.3125 -96.484375 C 48.171875 -96.484375 53.46875 -94.921875 57.203125 -91.1875 C 60.953125 -87.609375 62.8125 -82.765625 62.8125 -76.84375 C 62.8125 -70.921875 60.953125 -66.40625 57.203125 -62.65625 C 53.46875 -59.078125 48.171875 -57.203125 41.3125 -57.203125 L 22.609375 -57.203125 Z M 7.796875 -29.15625 L 7.796875 0 L 22.609375 0 L 22.609375 -29.15625 Z M 7.796875 -29.15625 "/></g></g></g><g fill="#a9bedf" fill-opacity="1"><g transform="translate(52.253907, 349.191392)"><g><path d="M 7.796875 -109.578125 L 7.796875 -44.109375 L 41.3125 -44.109375 C 53.625 -44.109375 62.8125 -46.921875 69.046875 -52.375 C 75.4375 -57.984375 78.5625 -66.09375 78.5625 -76.84375 C 78.5625 -87.609375 75.4375 -95.703125 69.046875 -101.15625 C 62.8125 -106.78125 53.625 -109.578125 41.3125 -109.578125 Z M 22.609375 -96.484375 L 41.3125 -96.484375 C 48.171875 -96.484375 53.46875 -94.921875 57.203125 -91.1875 C 60.953125 -87.609375 62.8125 -82.765625 62.8125 -76.84375 C 62.8125 -70.921875 60.953125 -66.40625 57.203125 -62.65625 C 53.46875 -59.078125 48.171875 -57.203125 41.3125 -57.203125 L 22.609375 -57.203125 Z M 7.796875 -29.15625 L 7.796875 0 L 22.609375 0 L 22.609375 -29.15625 Z M 7.796875 -29.15625 "/></g></g></g><g fill="#a9bedf" fill-opacity="0.4"><g transform="translate(145.346084, 356.080447)"><g/></g></g><g fill="#a9bedf" fill-opacity="0.4"><g transform="translate(176.520292, 356.080447)"><g/></g></g><g fill="#a9bedf" fill-opacity="0.4"><g transform="translate(207.6945, 356.080447)"><g/></g></g><g fill="#a9bedf" fill-opacity="1"><g transform="translate(138.45703, 349.191392)"><g/></g></g><g fill="#a9bedf" fill-opacity="1"><g transform="translate(169.631238, 349.191392)"><g/></g></g><g fill="#a9bedf" fill-opacity="1"><g transform="translate(200.805446, 349.191392)"><g/></g></g><g fill="#a9bedf" fill-opacity="0.4"><g transform="translate(238.873418, 356.080447)"><g><path d="M 52.375 -61.71875 L 52.375 -47.078125 C 56.109375 -45.828125 59.390625 -43.796875 62.03125 -41.15625 C 65.46875 -36.9375 66.71875 -32.734375 65.78125 -28.375 C 65 -24 62.65625 -20.734375 58.609375 -18.390625 C 55.1875 -16.828125 51.4375 -15.75 46.765625 -15.125 C 42.234375 -14.65625 38.5 -14.5 35.234375 -14.65625 C 32.109375 -14.96875 27.59375 -15.125 21.671875 -15.75 C 15.90625 -16.359375 11.6875 -16.828125 9.203125 -16.984375 L 8.265625 -2.34375 C 11.0625 -2.34375 15.90625 -2.03125 23.0625 -1.40625 C 30.390625 -0.78125 36.15625 -0.625 40.375 -0.3125 C 44.734375 -0.15625 49.5625 -0.46875 55.1875 -1.40625 C 60.953125 -2.34375 65.78125 -4.046875 69.515625 -6.390625 C 77 -11.21875 81.0625 -18.703125 81.671875 -28.6875 C 82.296875 -37.40625 80.125 -44.265625 75.125 -49.5625 C 70.453125 -54.875 62.8125 -58.921875 52.375 -61.71875 Z M 19.484375 -102.875 C 12.3125 -98.046875 8.421875 -91.03125 7.796875 -81.671875 C 7.484375 -73.734375 9.515625 -67.34375 14.03125 -62.34375 C 18.390625 -57.984375 26.34375 -54.25 37.5625 -51.125 L 37.5625 -65.625 C 34.765625 -65.9375 32.109375 -67.03125 29.921875 -68.890625 C 27.75 -70.921875 26.34375 -73.109375 25.40625 -75.4375 C 24.46875 -77.9375 24.15625 -80.28125 24.625 -82.765625 C 25.25 -85.421875 26.5 -87.609375 28.375 -89.15625 C 30.546875 -90.71875 33.046875 -91.96875 36.3125 -92.75 C 39.75 -93.6875 43.484375 -94.15625 47.703125 -94.15625 C 52.0625 -94.296875 55.640625 -94.296875 58.609375 -94.15625 C 61.71875 -94.15625 65.3125 -93.84375 69.671875 -93.375 C 74.046875 -93.0625 76.6875 -92.75 77.3125 -92.59375 L 78.25 -107.234375 L 66.875 -108.015625 C 61.71875 -108.484375 57.359375 -108.796875 53.78125 -108.953125 C 50.34375 -109.265625 46.296875 -109.421875 41.78125 -109.109375 C 37.40625 -108.953125 33.203125 -108.484375 29.453125 -107.390625 C 25.71875 -106.46875 22.453125 -104.90625 19.484375 -102.875 Z M 19.484375 -102.875 "/></g></g></g><g fill="#a9bedf" fill-opacity="1"><g transform="translate(231.984364, 349.191392)"><g><path d="M 52.375 -61.71875 L 52.375 -47.078125 C 56.109375 -45.828125 59.390625 -43.796875 62.03125 -41.15625 C 65.46875 -36.9375 66.71875 -32.734375 65.78125 -28.375 C 65 -24 62.65625 -20.734375 58.609375 -18.390625 C 55.1875 -16.828125 51.4375 -15.75 46.765625 -15.125 C 42.234375 -14.65625 38.5 -14.5 35.234375 -14.65625 C 32.109375 -14.96875 27.59375 -15.125 21.671875 -15.75 C 15.90625 -16.359375 11.6875 -16.828125 9.203125 -16.984375 L 8.265625 -2.34375 C 11.0625 -2.34375 15.90625 -2.03125 23.0625 -1.40625 C 30.390625 -0.78125 36.15625 -0.625 40.375 -0.3125 C 44.734375 -0.15625 49.5625 -0.46875 55.1875 -1.40625 C 60.953125 -2.34375 65.78125 -4.046875 69.515625 -6.390625 C 77 -11.21875 81.0625 -18.703125 81.671875 -28.6875 C 82.296875 -37.40625 80.125 -44.265625 75.125 -49.5625 C 70.453125 -54.875 62.8125 -58.921875 52.375 -61.71875 Z M 19.484375 -102.875 C 12.3125 -98.046875 8.421875 -91.03125 7.796875 -81.671875 C 7.484375 -73.734375 9.515625 -67.34375 14.03125 -62.34375 C 18.390625 -57.984375 26.34375 -54.25 37.5625 -51.125 L 37.5625 -65.625 C 34.765625 -65.9375 32.109375 -67.03125 29.921875 -68.890625 C 27.75 -70.921875 26.34375 -73.109375 25.40625 -75.4375 C 24.46875 -77.9375 24.15625 -80.28125 24.625 -82.765625 C 25.25 -85.421875 26.5 -87.609375 28.375 -89.15625 C 30.546875 -90.71875 33.046875 -91.96875 36.3125 -92.75 C 39.75 -93.6875 43.484375 -94.15625 47.703125 -94.15625 C 52.0625 -94.296875 55.640625 -94.296875 58.609375 -94.15625 C 61.71875 -94.15625 65.3125 -93.84375 69.671875 -93.375 C 74.046875 -93.0625 76.6875 -92.75 77.3125 -92.59375 L 78.25 -107.234375 L 66.875 -108.015625 C 61.71875 -108.484375 57.359375 -108.796875 53.78125 -108.953125 C 50.34375 -109.265625 46.296875 -109.421875 41.78125 -109.109375 C 37.40625 -108.953125 33.203125 -108.484375 29.453125 -107.390625 C 25.71875 -106.46875 22.453125 -104.90625 19.484375 -102.875 Z M 19.484375 -102.875 "/></g></g></g></svg>